<svg xmlns="http://www.w3.org/2000/svg" width="13.745" height="42.52" viewBox="0 0 13.745 42.52">
  <path id="Icon_payment-visa" data-name="Icon payment-visa" d="M9.734,20.426A1.384,1.384,0,0,0,8.177,19.3H2.612l-.041.269c3.82.976,6.955,3.052,8.367,6.977l-1.2-6.125ZM11.291,28.4l-.353-1.848a8.335,8.335,0,0,0-4.486-4.527l2.8,10.589h3.634L18.309,19.3H14.654L11.291,28.4Zm9.7,4.235L23.145,19.3H19.7l-2.16,13.328Zm9.4-13.557c-3.4,0-5.792,1.807-5.813,4.4-.021,1.911,1.7,2.969,3.01,3.614,1.35.643,1.786,1.079,1.786,1.66,0,.893-1.079,1.288-2.055,1.288a6.532,6.532,0,0,1-3.239-.685l-.457-.228-.478,2.989a10.041,10.041,0,0,0,3.841.707c3.613.021,5.96-1.786,6-4.546,0-1.516-.934-2.657-2.907-3.614-1.2-.6-1.93-1.038-1.93-1.66,0-.56.622-1.143,1.972-1.143a5.727,5.727,0,0,1,2.574.5l.312.165.477-2.886a8.565,8.565,0,0,0-3.093-.561Zm9.26.229a1.7,1.7,0,0,0-1.807,1.121L32.737,32.633h3.613c.582-1.639.728-1.993.728-1.993h4.4s.1.457.415,1.993h3.2L42.309,19.3H39.651Zm-1.6,8.6s.29-.769,1.371-3.717c-.021.021.29-.769.457-1.267l.248,1.143c.643,3.177.79,3.841.79,3.841H38.052Z" transform="translate(-19.076 45.091) rotate(-90)" fill="#fff" opacity="0.9"/>
</svg>
